<svg viewBox="0 0 25 25" xmlns="http://www.w3.org/2000/svg" xmlns:xlink="http://www.w3.org/1999/xlink" width="25.000000" height="25.000000" fill="none" customFrame="#000000">
	<g id="🦆 icon &quot;Plus&quot;">
		<g id="Group">
			<path id="Vector" d="M12.5 23.75C18.7132 23.75 23.75 18.7132 23.75 12.5C23.75 6.28681 18.7132 1.25 12.5 1.25C6.28681 1.25 1.25 6.28681 1.25 12.5C1.25 18.7132 6.28681 23.75 12.5 23.75ZM12.5 25C19.4036 25 25 19.4036 25 12.5C25 5.59644 19.4036 0 12.5 0C5.59644 0 0 5.59644 0 12.5C0 19.4036 5.59644 25 12.5 25Z" fill="rgb(51,51,51)" fill-opacity="0.300000012" fill-rule="evenodd" />
			<path id="Vector" d="M5.625 12.5C5.625 12.1548 5.90481 11.875 6.25 11.875L18.75 11.875C19.0952 11.875 19.375 12.1548 19.375 12.5C19.375 12.8452 19.0952 13.125 18.75 13.125L6.25 13.125C5.90481 13.125 5.625 12.8452 5.625 12.5Z" fill="rgb(51,51,51)" fill-rule="evenodd" />
		</g>
	</g>
</svg>
