<svg viewBox="0 0 28 30" xmlns="http://www.w3.org/2000/svg" xmlns:xlink="http://www.w3.org/1999/xlink" width="28.000000" height="30.000000" fill="none" customFrame="#000000">
	<path id="Vector" d="M1.75006 0C1.28591 3.91843e-16 0.84078 0.185924 0.51258 0.51687C0.184381 0.847817 1.55436e-15 1.29668 0 1.76471C7.77182e-16 2.23273 0.184381 2.6816 0.51258 3.01254C0.84078 3.34349 1.28591 3.52941 1.75006 3.52941L3.88513 3.52941L4.4189 5.68588C4.4242 5.71071 4.43003 5.73542 4.4364 5.76L6.81298 15.3424L5.25018 16.9165C3.0451 19.14 4.60615 22.9412 7.72476 22.9412L22.7508 22.9412C23.2149 22.9412 23.66 22.7553 23.9882 22.4243C24.3164 22.0934 24.5008 21.6445 24.5008 21.1765C24.5008 20.7084 24.3164 20.2596 23.9882 19.9286C23.66 19.5977 23.2149 19.4118 22.7508 19.4118L7.72476 19.4118L9.47482 17.6471L21.0007 17.6471C21.3256 17.6469 21.6441 17.5555 21.9204 17.3831C22.1967 17.2108 22.42 16.9643 22.5653 16.6712L27.8154 6.08294C27.9487 5.81396 28.0116 5.5151 27.9982 5.21472C27.9848 4.91433 27.8955 4.62238 27.7388 4.36658C27.582 4.11077 27.3631 3.89959 27.1027 3.75308C26.8423 3.60656 26.5491 3.52957 26.2509 3.52941L7.49025 3.52941L6.94773 1.33588C6.85293 0.954271 6.63439 0.615545 6.32682 0.373509C6.01926 0.131474 5.64031 1.03419e-05 5.25018 0L1.75006 0ZM24.5008 27.3529C24.5008 28.055 24.2242 28.7283 23.7319 29.2247C23.2396 29.7211 22.5719 30 21.8757 30C21.1795 30 20.5118 29.7211 20.0195 29.2247C19.5272 28.7283 19.2506 28.055 19.2506 27.3529C19.2506 26.6509 19.5272 25.9776 20.0195 25.4812C20.5118 24.9848 21.1795 24.7059 21.8757 24.7059C22.5719 24.7059 23.2396 24.9848 23.7319 25.4812C24.2242 25.9776 24.5008 26.6509 24.5008 27.3529ZM7.87526 30C8.57148 30 9.23918 29.7211 9.73148 29.2247C10.2238 28.7283 10.5004 28.055 10.5004 27.3529C10.5004 26.6509 10.2238 25.9776 9.73148 25.4812C9.23918 24.9848 8.57148 24.7059 7.87526 24.7059C7.17905 24.7059 6.51134 24.9848 6.01905 25.4812C5.52675 25.9776 5.25018 26.6509 5.25018 27.3529C5.25018 28.055 5.52675 28.7283 6.01905 29.2247C6.51134 29.7211 7.17905 30 7.87526 30Z" fill="rgb(255,255,255)" fill-rule="nonzero" />
</svg>
