<svg viewBox="0 0 147 50.7239" xmlns="http://www.w3.org/2000/svg" xmlns:xlink="http://www.w3.org/1999/xlink" width="147.000000" height="50.723907" fill="none" customFrame="#000000">
	<g id="Group 1">
		<path id="FoodTime" d="M11.593 27.9364L8.87187 27.9081C8.09712 27.9081 7.50188 27.9175 7.08616 27.9364C6.78382 30.5819 6.63265 32.7267 6.63265 34.3707C6.63265 36.0147 6.68934 37.1674 6.80271 37.8287C6.19803 37.8665 5.8012 37.8854 5.61224 37.8854C4.53514 37.8854 3.76039 37.6965 3.28798 37.3185C2.81557 36.9406 2.57936 36.2792 2.57936 35.3344C2.57936 34.3707 2.84391 32.0748 3.37301 28.4466C2.76833 28.6356 2.32426 28.7962 2.04081 28.9285C2.00302 28.5128 1.98413 28.201 1.98413 27.9931C1.98413 26.6893 2.57936 25.8767 3.76984 25.5555C4.12887 22.9667 4.34618 20.7275 4.42176 18.8378C3.45805 18.8378 2.84391 18.7055 2.57936 18.441C2.33371 18.1764 2.21088 17.5907 2.21088 16.6836C2.28647 15.8333 2.36205 15.2758 2.43764 15.0113C4.57294 15.2947 6.91609 15.4365 9.46711 15.4365C12.0181 15.4365 14.4841 15.2097 16.8651 14.7562C16.6005 16.7403 15.3911 17.9308 13.2369 18.3276C12.0654 18.5544 10.393 18.7055 8.21995 18.7811C8.20105 19.0268 7.92705 21.2282 7.39795 25.3854C8.49395 25.4232 9.24035 25.4421 9.63718 25.4421C11.4323 25.4421 12.7078 25.1303 13.4637 24.5067C13.5015 24.8847 13.5204 25.1681 13.5204 25.3571C13.5204 27.0767 12.8779 27.9364 11.593 27.9364ZM24.9583 23.2029C23.7301 23.2029 22.6341 24.0343 21.6704 25.6972C20.7066 27.3412 20.2248 28.9852 20.2248 30.6292C20.2248 34.0683 21.1129 35.7879 22.8892 35.7879C24.1552 35.7879 25.1851 34.9659 25.9788 33.3219C26.7724 31.659 27.1692 29.7977 27.1692 27.738C27.1692 24.7146 26.4323 23.2029 24.9583 23.2029ZM26.7157 21.1337C27.8495 21.1337 28.8132 21.6912 29.6069 22.8061C30.4005 23.921 30.7973 25.4138 30.7973 27.2845C30.7973 29.382 30.3722 31.3095 29.5218 33.0668C28.577 35.0509 27.2354 36.4209 25.4969 37.1768C24.5143 37.6114 23.4372 37.8287 22.2656 37.8287C20.6216 37.8287 19.1855 37.1957 17.9572 35.9296C16.7478 34.6447 16.1432 32.8117 16.1432 30.4308C16.1432 28.0309 16.7289 25.924 17.9005 24.1099C19.0721 22.277 20.6216 21.1243 22.549 20.6519C22.7569 20.6519 22.9459 20.718 23.1159 20.8503C23.3049 20.9637 23.3994 21.0865 23.3994 21.2188C21.4908 22.5415 20.3476 24.3839 19.9697 26.746C20.3665 25.6878 20.8484 24.7713 21.4153 23.9965C22.0011 23.2218 22.6057 22.636 23.2293 22.2392C24.4198 21.5022 25.5819 21.1337 26.7157 21.1337ZM42.4523 23.2029C41.224 23.2029 40.128 24.0343 39.1643 25.6972C38.2006 27.3412 37.7187 28.9852 37.7187 30.6292C37.7187 34.0683 38.6069 35.7879 40.3831 35.7879C41.6492 35.7879 42.6791 34.9659 43.4727 33.3219C44.2664 31.659 44.6632 29.7977 44.6632 27.738C44.6632 24.7146 43.9262 23.2029 42.4523 23.2029ZM44.2097 21.1337C45.3435 21.1337 46.3072 21.6912 47.1008 22.8061C47.8945 23.921 48.2913 25.4138 48.2913 27.2845C48.2913 29.382 47.8661 31.3095 47.0158 33.0668C46.071 35.0509 44.7293 36.4209 42.9909 37.1768C42.0082 37.6114 40.9311 37.8287 39.7596 37.8287C38.1156 37.8287 36.6794 37.1957 35.4512 35.9296C34.2418 34.6447 33.6371 32.8117 33.6371 30.4308C33.6371 28.0309 34.2229 25.924 35.3945 24.1099C36.5661 22.277 38.1156 21.1243 40.043 20.6519C40.2509 20.6519 40.4398 20.718 40.6099 20.8503C40.7989 20.9637 40.8933 21.0865 40.8933 21.2188C38.9848 22.5415 37.8416 24.3839 37.4636 26.746C37.8605 25.6878 38.3423 24.7713 38.9092 23.9965C39.495 23.2218 40.0997 22.636 40.7233 22.2392C41.9138 21.5022 43.0759 21.1337 44.2097 21.1337ZM54.9293 31.6779C54.9293 33.9266 55.6095 35.0509 56.9701 35.0509C57.6881 35.0509 58.3873 34.6636 59.0676 33.8888C59.7478 33.1141 60.2958 32.0748 60.7116 30.7709C61.1462 29.4671 61.5147 28.0782 61.817 26.6042C62.1382 25.1114 62.3745 23.5336 62.5256 21.8707C62.7902 18.6583 62.9224 16.1545 62.9224 14.3594C62.9224 12.5453 62.8469 11.1848 62.6957 10.2777C64.0562 10.5801 65.0105 11.2226 65.5585 12.2052C66.1065 13.1878 66.3805 14.4255 66.3805 15.9183C66.3805 17.4111 66.0592 20.1889 65.4168 24.2516C64.7932 28.3144 64.4814 31.2811 64.4814 33.1519C64.4814 35.0226 64.5664 36.6099 64.7365 37.9138C63.3949 37.5547 62.4689 36.9123 61.9587 35.9863C61.4674 35.0415 61.2218 33.8605 61.2218 32.4432C60.636 34.0683 59.7573 35.3533 58.5857 36.2981C57.4141 37.2429 56.2048 37.7153 54.9576 37.7153C53.7104 37.7153 52.69 37.2429 51.8964 36.2981C51.1216 35.3344 50.7343 33.9266 50.7343 32.0748C50.7343 29.1458 51.5373 26.6326 53.1435 24.5351C54.7497 22.4187 56.6488 21.3605 58.8408 21.3605C59.4644 21.3605 60.447 21.5117 61.7887 21.814C60.6171 22.1163 59.5683 22.6454 58.6424 23.4013C57.7354 24.1383 57.0268 24.9886 56.5166 25.9523C55.4584 27.8609 54.9293 29.7694 54.9293 31.6779ZM82.0327 17.704L82.0327 20.3401L76.789 20.3401L76.789 37.4036L73.5577 37.4036L73.5577 20.3401L68.2856 20.3401L68.2856 17.704L82.0327 17.704ZM86.9492 19.7165C86.3634 19.7165 85.8721 19.5181 85.4753 19.1213C85.0784 18.7244 84.88 18.2331 84.88 17.6473C84.88 17.0616 85.0784 16.5702 85.4753 16.1734C85.8721 15.7766 86.3634 15.5782 86.9492 15.5782C87.5161 15.5782 87.9979 15.7766 88.3948 16.1734C88.7916 16.5702 88.99 17.0616 88.99 17.6473C88.99 18.2331 88.7916 18.7244 88.3948 19.1213C87.9979 19.5181 87.5161 19.7165 86.9492 19.7165ZM88.5365 21.7857L88.5365 37.4036L85.3052 37.4036L85.3052 21.7857L88.5365 21.7857ZM111.685 21.5306C112.913 21.5306 114.009 21.7857 114.973 22.2959C115.955 22.8061 116.721 23.5619 117.269 24.5634C117.836 25.5649 118.119 26.7743 118.119 28.1915L118.119 37.4036L114.916 37.4036L114.916 28.6734C114.916 27.2751 114.566 26.2074 113.867 25.4705C113.168 24.7146 112.214 24.3367 111.004 24.3367C109.795 24.3367 108.831 24.7146 108.113 25.4705C107.414 26.2074 107.065 27.2751 107.065 28.6734L107.065 37.4036L103.862 37.4036L103.862 28.6734C103.862 27.2751 103.512 26.2074 102.813 25.4705C102.114 24.7146 101.159 24.3367 99.9501 24.3367C98.7407 24.3367 97.777 24.7146 97.0589 25.4705C96.3597 26.2074 96.0102 27.2751 96.0102 28.6734L96.0102 37.4036L92.7789 37.4036L92.7789 21.7857L96.0102 21.7857L96.0102 23.5714C96.5393 22.9289 97.2101 22.4281 98.0226 22.0691C98.8352 21.7101 99.7044 21.5306 100.63 21.5306C101.878 21.5306 102.992 21.7951 103.975 22.3242C104.958 22.8533 105.713 23.6186 106.243 24.6201C106.715 23.6753 107.452 22.9289 108.453 22.3809C109.455 21.814 110.532 21.5306 111.685 21.5306ZM136.545 29.212C136.545 29.7977 136.507 30.3268 136.431 30.7993L124.498 30.7993C124.593 32.0464 125.056 33.0479 125.887 33.8038C126.719 34.5596 127.739 34.9376 128.948 34.9376C130.687 34.9376 131.915 34.2101 132.633 32.755L136.12 32.755C135.647 34.1912 134.787 35.3722 133.54 36.2981C132.312 37.2051 130.781 37.6587 128.948 37.6587C127.456 37.6587 126.114 37.328 124.923 36.6666C123.752 35.9863 122.826 35.0415 122.146 33.8321C121.484 32.6039 121.154 31.1866 121.154 29.5804C121.154 27.9742 121.475 26.5665 122.117 25.3571C122.779 24.1288 123.695 23.184 124.867 22.5226C126.057 21.8612 127.418 21.5306 128.948 21.5306C130.422 21.5306 131.736 21.8518 132.888 22.4943C134.041 23.1368 134.939 24.0438 135.581 25.2154C136.224 26.368 136.545 27.7002 136.545 29.212ZM133.172 28.1915C133.153 27.0011 132.728 26.0468 131.896 25.3287C131.065 24.6107 130.035 24.2516 128.807 24.2516C127.692 24.2516 126.738 24.6107 125.944 25.3287C125.15 26.0279 124.678 26.9822 124.527 28.1915L133.172 28.1915Z" fill="rgb(57,108,3)" fill-rule="nonzero" />
		<path id="Vector" d="M140.508 0L138.534 0C138.251 0 138.023 0.227932 138.023 0.510567L138.023 11.816C138.023 11.9801 138.101 12.1305 138.233 12.2262L145.021 17.1769C145.249 17.341 145.568 17.2954 145.732 17.0675L146.904 15.4674L146.904 15.4629C147.068 15.2349 147.018 14.9158 146.79 14.7517L141.014 10.576L141.014 0.510567C141.018 0.227932 140.786 0 140.508 0Z" fill="rgb(255,139,0)" fill-rule="nonzero" />
	</g>
</svg>
