<svg viewBox="0 0 217.465 69.7168" xmlns="http://www.w3.org/2000/svg" xmlns:xlink="http://www.w3.org/1999/xlink" width="217.464966" height="69.716797" fill="none" customFrame="#000000">
	<g id="Group 1">
		<path id="FoodTime" d="M17.3894 35.7857L13.3078 35.7432C12.1457 35.7432 11.2528 35.7574 10.6292 35.7857C10.1757 39.754 9.94897 42.9711 9.94897 45.4371C9.94897 47.903 10.034 49.6321 10.2041 50.6241C9.29704 50.6808 8.7018 50.7092 8.41836 50.7092C6.80271 50.7092 5.64058 50.4257 4.93197 49.8588C4.22335 49.2919 3.86904 48.2999 3.86904 46.8826C3.86904 45.4371 4.26587 41.9932 5.05952 36.551C4.15249 36.8345 3.48639 37.0754 3.06122 37.2738C3.00453 36.6502 2.97619 36.1825 2.97619 35.8707C2.97619 33.915 3.86904 32.6961 5.65475 32.2143C6.1933 28.3311 6.51927 24.9722 6.63264 22.1378C5.18707 22.1378 4.26587 21.9394 3.86904 21.5425C3.50056 21.1457 3.31632 20.267 3.31632 18.9065C3.4297 17.631 3.54308 16.7948 3.65646 16.398C6.8594 16.8232 10.3741 17.0357 14.2007 17.0357C18.0272 17.0357 21.7262 16.6956 25.2976 16.0153C24.9008 18.9915 23.0867 20.7772 19.8554 21.3725C18.098 21.7126 15.5895 21.9394 12.3299 22.0527C12.3016 22.4212 11.8906 25.7234 11.0969 31.9592C12.7409 32.0159 13.8605 32.0442 14.4558 32.0442C17.1485 32.0442 19.0618 31.5765 20.1956 30.6412C20.2522 31.2081 20.2806 31.6332 20.2806 31.9167C20.2806 34.496 19.3169 35.7857 17.3894 35.7857ZM37.4375 28.6854C35.5951 28.6854 33.9511 29.9325 32.5055 32.4269C31.06 34.8929 30.3372 37.3588 30.3372 39.8248C30.3372 44.9835 31.6694 47.5629 34.3338 47.5629C36.2329 47.5629 37.7776 46.3299 38.9681 43.8639C40.1586 41.3696 40.7538 38.5777 40.7538 35.4881C40.7538 30.953 39.6484 28.6854 37.4375 28.6854ZM40.0736 25.5816C41.7742 25.5816 43.2198 26.4178 44.4103 28.0901C45.6008 29.7625 46.196 32.0017 46.196 34.8078C46.196 37.9541 45.5582 40.8452 44.2827 43.4813C42.8655 46.4575 40.853 48.5125 38.2453 49.6462C36.7714 50.2982 35.1558 50.6241 33.3984 50.6241C30.9324 50.6241 28.7782 49.6746 26.9358 47.7755C25.1218 45.8481 24.2147 43.0986 24.2147 39.5272C24.2147 35.9274 25.0934 32.767 26.8508 30.0459C28.6082 27.2965 30.9324 25.5675 33.8236 24.8589C34.1354 24.8589 34.4188 24.9581 34.6739 25.1565C34.9573 25.3265 35.0991 25.5108 35.0991 25.7092C32.2363 27.6933 30.5214 30.4569 29.9545 34C30.5498 32.4127 31.2725 31.038 32.1229 29.8759C33.0016 28.7137 33.9086 27.835 34.844 27.2398C36.6297 26.1344 38.3729 25.5816 40.0736 25.5816ZM63.6784 28.6854C61.836 28.6854 60.192 29.9325 58.7465 32.4269C57.3009 34.8929 56.5781 37.3588 56.5781 39.8248C56.5781 44.9835 57.9103 47.5629 60.5747 47.5629C62.4738 47.5629 64.0186 46.3299 65.209 43.8639C66.3995 41.3696 66.9948 38.5777 66.9948 35.4881C66.9948 30.953 65.8893 28.6854 63.6784 28.6854ZM66.3145 25.5816C68.0152 25.5816 69.4607 26.4178 70.6512 28.0901C71.8417 29.7625 72.4369 32.0017 72.4369 34.8078C72.4369 37.9541 71.7992 40.8452 70.5237 43.4813C69.1064 46.4575 67.094 48.5125 64.4863 49.6462C63.0123 50.2982 61.3967 50.6241 59.6393 50.6241C57.1733 50.6241 55.0191 49.6746 53.1767 47.7755C51.3627 45.8481 50.4557 43.0986 50.4557 39.5272C50.4557 35.9274 51.3343 32.767 53.0917 30.0459C54.8491 27.2965 57.1733 25.5675 60.0645 24.8589C60.3763 24.8589 60.6597 24.9581 60.9148 25.1565C61.1983 25.3265 61.34 25.5108 61.34 25.7092C58.4772 27.6933 56.7623 30.4569 56.1954 34C56.7907 32.4127 57.5135 31.038 58.3638 29.8759C59.2425 28.7137 60.1495 27.835 61.0849 27.2398C62.8706 26.1344 64.6138 25.5816 66.3145 25.5816ZM82.3939 41.3979C82.3939 44.771 83.4143 46.4575 85.4551 46.4575C86.5322 46.4575 87.5809 45.8764 88.6013 44.7143C89.6217 43.5521 90.4437 41.9932 91.0673 40.0374C91.7192 38.0816 92.272 35.9983 92.7255 33.7874C93.2073 31.5482 93.5616 29.1814 93.7884 26.6871C94.1852 21.8685 94.3836 18.1128 94.3836 15.4201C94.3836 12.699 94.2703 10.6582 94.0435 9.29765C96.0843 9.75117 97.5157 10.7149 98.3377 12.1888C99.1597 13.6627 99.5707 15.5193 99.5707 17.7585C99.5707 19.9978 99.0888 24.1644 98.1251 30.2585C97.1898 36.3526 96.7221 40.8027 96.7221 43.6088C96.7221 46.415 96.8496 48.7959 97.1047 50.7517C95.0923 50.2131 93.7034 49.2494 92.9381 47.8605C92.2011 46.4433 91.8326 44.6718 91.8326 42.5459C90.9539 44.9835 89.6359 46.911 87.8785 48.3282C86.1212 49.7454 84.3071 50.4541 82.4364 50.4541C80.5656 50.4541 79.035 49.7454 77.8445 48.3282C76.6824 46.8826 76.1013 44.771 76.1013 41.9932C76.1013 37.5998 77.306 33.8299 79.7153 30.6837C82.1246 27.5091 84.9732 25.9218 88.2612 25.9218C89.1966 25.9218 90.6705 26.1485 92.683 26.6021C90.9256 27.0556 89.3525 27.8492 87.9636 28.983C86.603 30.0884 85.5401 31.3639 84.7748 32.8095C83.1875 35.6723 82.3939 38.5351 82.3939 41.3979ZM123.049 20.4371L123.049 24.3912L115.183 24.3912L115.183 49.9864L110.336 49.9864L110.336 24.3912L102.428 24.3912L102.428 20.4371L123.049 20.4371ZM130.424 23.4558C129.545 23.4558 128.808 23.1582 128.213 22.5629C127.618 21.9677 127.32 21.2307 127.32 20.3521C127.32 19.4734 127.618 18.7364 128.213 18.1412C128.808 17.5459 129.545 17.2483 130.424 17.2483C131.274 17.2483 131.997 17.5459 132.592 18.1412C133.187 18.7364 133.485 19.4734 133.485 20.3521C133.485 21.2307 133.187 21.9677 132.592 22.5629C131.997 23.1582 131.274 23.4558 130.424 23.4558ZM132.805 26.5595L132.805 49.9864L127.958 49.9864L127.958 26.5595L132.805 26.5595ZM167.527 26.1769C169.369 26.1769 171.013 26.5595 172.459 27.3248C173.933 28.0901 175.081 29.2239 175.903 30.7262C176.753 32.2285 177.178 34.0425 177.178 36.1684L177.178 49.9864L172.374 49.9864L172.374 36.8912C172.374 34.7936 171.85 33.1922 170.801 32.0867C169.752 30.953 168.321 30.3861 166.507 30.3861C164.693 30.3861 163.247 30.953 162.17 32.0867C161.121 33.1922 160.597 34.7936 160.597 36.8912L160.597 49.9864L155.792 49.9864L155.792 36.8912C155.792 34.7936 155.268 33.1922 154.219 32.0867C153.171 30.953 151.739 30.3861 149.925 30.3861C148.111 30.3861 146.665 30.953 145.588 32.0867C144.54 33.1922 144.015 34.7936 144.015 36.8912L144.015 49.9864L139.168 49.9864L139.168 26.5595L144.015 26.5595L144.015 29.2381C144.809 28.2744 145.815 27.5233 147.034 26.9847C148.253 26.4462 149.557 26.1769 150.945 26.1769C152.816 26.1769 154.489 26.5737 155.962 27.3674C157.436 28.161 158.57 29.309 159.364 30.8112C160.072 29.394 161.178 28.2744 162.68 27.4524C164.182 26.6021 165.798 26.1769 167.527 26.1769ZM204.817 37.699C204.817 38.5777 204.76 39.3713 204.647 40.0799L186.747 40.0799C186.889 41.9507 187.584 43.4529 188.831 44.5867C190.078 45.7205 191.609 46.2874 193.423 46.2874C196.03 46.2874 197.873 45.1961 198.95 43.0136L204.179 43.0136C203.471 45.1678 202.181 46.9393 200.31 48.3282C198.468 49.6888 196.172 50.369 193.423 50.369C191.183 50.369 189.171 49.873 187.385 48.8809C185.628 47.8605 184.239 46.4433 183.218 44.6292C182.226 42.7868 181.73 40.661 181.73 38.2517C181.73 35.8424 182.212 33.7307 183.176 31.9167C184.168 30.0743 185.543 28.657 187.3 27.665C189.086 26.6729 191.127 26.1769 193.423 26.1769C195.633 26.1769 197.603 26.6587 199.332 27.6225C201.061 28.5862 202.408 29.9467 203.372 31.7041C204.335 33.4331 204.817 35.4314 204.817 37.699ZM199.758 36.1684C199.729 34.3827 199.091 32.9512 197.844 31.8742C196.597 30.7971 195.052 30.2585 193.21 30.2585C191.538 30.2585 190.106 30.7971 188.916 31.8742C187.725 32.9229 187.017 34.3543 186.79 36.1684L199.758 36.1684Z" fill="rgb(255,255,255)" fill-rule="nonzero" />
		<path id="Vector" d="M207.727 1.63086L204.766 1.63086C204.342 1.63086 204 1.97276 204 2.39671L204 19.3548C204 19.601 204.116 19.8266 204.315 19.9702L214.496 27.3962C214.838 27.6424 215.317 27.574 215.563 27.2321L217.32 24.832L217.32 24.8251C217.566 24.4832 217.491 24.0046 217.149 23.7584L208.486 17.4949L208.486 2.39671C208.493 1.97276 208.144 1.63086 207.727 1.63086Z" fill="rgb(255,139,0)" fill-rule="nonzero" />
	</g>
</svg>
