<svg viewBox="0 0 242.138 88.1218" xmlns="http://www.w3.org/2000/svg" xmlns:xlink="http://www.w3.org/1999/xlink" width="242.138428" height="88.121826" fill="none" customFrame="#000000">
	<g id="App Store Black">
		<rect id="Body" width="242.138412" height="88.121933" x="0.000000" y="0.000000" rx="13.301423" fill="rgb(9,9,9)" />
		<g id="Logo">
			<path id="Apple logo" d="M51.934 19.748C52.1476 22.5481 51.2655 25.3215 49.4752 27.4792C47.7605 29.6202 45.0704 30.897 42.3341 30.8687C42.1595 28.1757 43.083 25.4511 44.8574 23.4238C46.672 21.3489 49.1987 20.0365 51.934 19.748ZM60.7009 36.2005C57.5413 38.1506 55.5496 41.6735 55.5018 45.3966C55.5063 49.6029 58.0834 53.5015 61.9423 55.14C61.1922 57.5861 60.0616 59.8978 58.5923 61.9894C56.6191 64.9526 54.5502 67.8476 51.2666 67.9011C49.7049 67.9373 48.6507 67.4865 47.5522 67.0167C46.4064 66.5267 45.2124 66.0161 43.344 66.0161C39.6501 66.0161 38.5072 67.8476 35.4471 67.9751C32.3198 68.0913 29.9299 64.8124 27.8849 61.8769C23.7977 55.8823 20.615 44.983 24.8818 37.5668C26.8668 33.986 30.6702 31.6573 34.7501 31.525C36.5237 31.4884 38.2256 32.1746 39.7178 32.7763C40.8589 33.2365 41.8773 33.6471 42.7112 33.6471C43.4443 33.6471 44.4343 33.2527 45.5881 32.793C47.4055 32.0688 49.6293 31.1828 51.8955 31.4216C55.369 31.5307 58.7076 33.3426 60.7009 36.2005Z" fill="rgb(255,255,255)" fill-rule="evenodd" />
		</g>
		<g id="Texto">
			<path id="App Store" d="M150.99 64.3754C145.59 64.3754 141.961 61.5798 141.691 57.2086L145.438 57.2086C145.759 59.5298 148.02 61.0038 151.277 61.0038C154.315 61.0038 156.543 59.4281 156.543 57.2595C156.543 55.3958 155.125 54.2776 151.902 53.5152L148.763 52.7528C144.358 51.7192 142.35 49.5845 142.35 45.9927C142.35 41.6384 145.894 38.7412 151.21 38.7412C156.155 38.7412 159.766 41.6384 159.986 45.7555L156.307 45.7555C155.952 43.5021 153.994 42.0959 151.159 42.0959C148.172 42.0959 146.181 43.536 146.181 45.7385C146.181 47.4836 147.463 48.4832 150.636 49.2287L153.319 49.8895C158.315 51.0585 160.374 53.0916 160.374 56.7682C160.374 61.4443 156.762 64.3754 150.99 64.3754ZM93.9621 63.7824L89.9455 63.7824L87.7177 57.2934L78.4355 57.2934L76.1909 63.7824L72.3093 63.7824L81.102 39.3342L85.1693 39.3342L93.9621 63.7824ZM164.649 46.0629L164.649 41.5512L168.15 41.5512L168.15 46.0629L171.993 46.0629L171.993 49.0216L168.15 49.0216L168.15 58.1756C168.15 60.0391 168.915 60.8564 170.658 60.8564C171.195 60.8564 171.504 60.8237 171.993 60.7747L171.993 63.7007C171.423 63.7987 170.772 63.8805 170.088 63.8805C166.196 63.8805 164.649 62.5074 164.649 59.0746L164.649 49.0216L161.832 49.0216L161.832 46.0629L164.649 46.0629ZM83.2285 43.7732L82.9416 43.7732L79.3975 54.1082L86.7558 54.1082L83.2285 43.7732ZM190.26 54.8736C190.26 60.6439 187.084 64.1257 181.906 64.1257C176.712 64.1257 173.537 60.6439 173.537 54.8736C173.537 49.136 176.728 45.6378 181.906 45.6378C187.068 45.6378 190.26 49.136 190.26 54.8736ZM211.78 61.1343C213.897 61.1343 215.346 60.366 215.998 58.9765L219.368 58.9765C218.57 62.1641 215.737 64.1257 211.683 64.1257C206.602 64.1257 203.492 60.6275 203.492 54.939C203.492 49.2504 206.667 45.6378 211.666 45.6378C216.6 45.6378 219.58 49.0216 219.58 54.612L219.58 55.838L207.058 55.838L207.058 56.0342C207.172 59.1563 208.98 61.1343 211.78 61.1343ZM196.477 63.7824L192.976 63.7824L192.976 45.9811L196.347 45.9811L196.347 48.711L196.607 48.711C197.112 46.9619 199.082 45.6869 201.394 45.6869C201.915 45.6869 202.583 45.7359 202.958 45.834L202.958 49.2994C202.665 49.2014 201.622 49.0869 201.004 49.0869C198.35 49.0869 196.477 50.7706 196.477 53.2716L196.477 63.7824ZM99.8576 48.9235C100.932 46.8965 103.017 45.6869 105.426 45.6869C109.937 45.6869 112.786 49.2177 112.786 54.8736C112.786 60.5294 109.937 64.0766 105.459 64.0766C102.935 64.0766 100.932 62.9651 100.004 61.0852L99.7274 61.0852L99.7274 69.6998L96.2265 69.6998L96.2265 45.9811L99.5971 45.9811L99.5971 48.9235L99.8576 48.9235ZM119.467 48.9235C120.542 46.8965 122.626 45.6869 125.036 45.6869C129.547 45.6869 132.396 49.2177 132.396 54.8736C132.396 60.5294 129.547 64.0766 125.069 64.0766C122.545 64.0766 120.542 62.9651 119.614 61.0852L119.337 61.0852L119.337 69.6998L115.836 69.6998L115.836 45.9811L119.207 45.9811L119.207 48.9235L119.467 48.9235ZM216.014 53.2389C215.932 50.4437 214.239 48.6292 211.65 48.6292C209.061 48.6292 207.254 50.46 207.058 53.2389L216.014 53.2389ZM177.152 54.8736C177.152 58.764 178.862 61.0035 181.906 61.0035C184.935 61.0035 186.661 58.7477 186.661 54.8736C186.661 51.0158 184.935 48.76 181.906 48.76C178.862 48.76 177.152 51.0158 177.152 54.8736ZM99.6622 54.8899C99.6622 58.6006 101.502 60.9218 104.433 60.9218C107.413 60.9218 109.188 58.6496 109.188 54.8736C109.188 51.1139 107.413 48.8417 104.449 48.8417C101.502 48.8417 99.6622 51.1629 99.6622 54.8899ZM119.272 54.8899C119.272 58.6006 121.112 60.9218 124.043 60.9218C127.023 60.9218 128.798 58.6496 128.798 54.8736C128.798 51.1139 127.023 48.8417 124.059 48.8417C121.112 48.8417 119.272 51.1629 119.272 54.8899Z" fill="rgb(255,255,255)" fill-rule="evenodd" />
			<path id="Download on the" d="M109.886 31.7535L111.32 31.7535L111.32 21.6143L109.886 21.6143L109.886 31.7535ZM134.867 30.6016C134.433 31.3985 133.586 31.874 132.585 31.874C130.738 31.874 129.57 30.4141 129.57 28.1036C129.57 25.7999 130.751 24.3399 132.585 24.3399C133.579 24.3399 134.42 24.8154 134.814 25.6191L134.92 25.6191L134.92 21.6143L136.355 21.6143L136.355 31.7535L134.98 31.7535L134.98 30.6016L134.867 30.6016ZM168.686 31.7535L170.12 31.7535L170.12 27.4942C170.12 26.3892 170.774 25.6458 171.948 25.6458C172.962 25.6458 173.502 26.2352 173.502 27.4005L173.502 31.7535L174.937 31.7535L174.937 27.0455C174.937 25.311 173.983 24.3265 172.435 24.3265C171.341 24.3265 170.574 24.8154 170.22 25.6324L170.107 25.6324L170.107 21.6143L168.686 21.6143L168.686 31.7535ZM72.2122 22.0897L72.2122 31.7535L75.6877 31.7535C78.5562 31.7535 80.2173 29.9788 80.2173 26.8915C80.2173 23.8511 78.5429 22.0897 75.6877 22.0897L72.2122 22.0897ZM163.752 24.494L163.752 22.6456L165.186 22.6456L165.186 24.494L166.761 24.494L166.761 25.7061L165.186 25.7061L165.186 29.4564C165.186 30.2199 165.5 30.5547 166.214 30.5547C166.434 30.5547 166.561 30.5413 166.761 30.5212L166.761 31.72C166.527 31.7602 166.26 31.7937 165.98 31.7937C164.386 31.7937 163.752 31.2311 163.752 29.8248L163.752 25.7061L162.598 25.7061L162.598 24.494L163.752 24.494ZM73.7065 23.4559L75.5209 23.4559C77.5156 23.4559 78.6963 24.7284 78.6963 26.9116C78.6963 29.1283 77.5356 30.3873 75.5209 30.3873L73.7065 30.3873L73.7065 23.4559ZM85.3045 31.8941C87.4259 31.8941 88.7267 30.4677 88.7267 28.1036C88.7267 25.753 87.4192 24.3198 85.3045 24.3198C83.1832 24.3198 81.8757 25.753 81.8757 28.1036C81.8757 30.4677 83.1765 31.8941 85.3045 31.8941ZM126.224 30.7288C125.79 31.4588 124.997 31.874 124.043 31.874C122.642 31.874 121.621 31.0235 121.621 29.6908C121.621 28.3782 122.595 27.6215 124.323 27.5143L126.291 27.4005L126.291 26.7709C126.291 26.0008 125.784 25.5655 124.803 25.5655C124.003 25.5655 123.449 25.8601 123.289 26.3758L121.901 26.3758C122.048 25.1235 123.222 24.3198 124.87 24.3198C126.691 24.3198 127.718 25.2306 127.718 26.7709L127.718 31.7535L126.337 31.7535L126.337 30.7288L126.224 30.7288ZM101.456 31.7535L102.89 31.7535L102.89 27.4875C102.89 26.349 103.564 25.6391 104.625 25.6391C105.686 25.6391 106.193 26.2218 106.193 27.3938L106.193 31.7535L107.627 31.7535L107.627 27.0321C107.627 25.2976 106.733 24.3198 105.112 24.3198C104.018 24.3198 103.297 24.8087 102.944 25.6191L102.837 25.6191L102.837 24.4605L101.456 24.4605L101.456 31.7535ZM116.714 31.8941C118.835 31.8941 120.136 30.4677 120.136 28.1036C120.136 25.753 118.829 24.3198 116.714 24.3198C114.593 24.3198 113.285 25.753 113.285 28.1036C113.285 30.4677 114.586 31.8941 116.714 31.8941ZM145.655 31.8941C147.777 31.8941 149.077 30.4677 149.077 28.1036C149.077 25.753 147.77 24.3198 145.655 24.3198C143.534 24.3198 142.226 25.753 142.226 28.1036C142.226 30.4677 143.527 31.8941 145.655 31.8941ZM150.976 31.7535L152.41 31.7535L152.41 27.4875C152.41 26.349 153.084 25.6391 154.145 25.6391C155.205 25.6391 155.712 26.2218 155.712 27.3938L155.712 31.7535L157.147 31.7535L157.147 27.0321C157.147 25.2976 156.253 24.3198 154.632 24.3198C153.538 24.3198 152.817 24.8087 152.464 25.6191L152.357 25.6191L152.357 24.4605L150.976 24.4605L150.976 31.7535ZM181.892 29.7846C181.625 30.3538 181.031 30.6686 180.164 30.6686C179.017 30.6686 178.276 29.8582 178.229 28.5791L178.229 28.4988L183.359 28.4988L183.359 27.9965C183.359 25.7061 182.139 24.3198 180.117 24.3198C178.069 24.3198 176.768 25.7999 176.768 28.1304C176.768 30.461 178.043 31.8941 180.124 31.8941C181.785 31.8941 182.946 31.0905 183.273 29.7846L181.892 29.7846ZM99.8045 24.4605L98.3703 24.4605L97.0761 30.0257L96.9627 30.0257L95.4684 24.4605L94.0942 24.4605L92.5999 30.0257L92.4932 30.0257L91.1923 24.4605L89.7381 24.4605L91.7393 31.7535L93.2136 31.7535L94.7079 26.3825L94.8213 26.3825L96.3223 31.7535L97.8099 31.7535L99.8045 24.4605ZM180.111 25.5454C181.171 25.5454 181.865 26.2888 181.898 27.4339L178.229 27.4339C178.309 26.2954 179.05 25.5454 180.111 25.5454ZM85.3045 30.615C84.0571 30.615 83.3566 29.6975 83.3566 28.1036C83.3566 26.5231 84.0571 25.599 85.3045 25.599C86.5453 25.599 87.2525 26.5231 87.2525 28.1036C87.2525 29.6908 86.5453 30.615 85.3045 30.615ZM116.714 30.615C115.467 30.615 114.766 29.6975 114.766 28.1036C114.766 26.5231 115.467 25.599 116.714 25.599C117.955 25.599 118.662 26.5231 118.662 28.1036C118.662 29.6908 117.955 30.615 116.714 30.615ZM145.655 30.615C144.408 30.615 143.707 29.6975 143.707 28.1036C143.707 26.5231 144.408 25.599 145.655 25.599C146.896 25.599 147.603 26.5231 147.603 28.1036C147.603 29.6908 146.896 30.615 145.655 30.615ZM134.947 28.1103C134.947 26.5901 134.193 25.6324 132.992 25.6324C131.785 25.6324 131.051 26.57 131.051 28.1036C131.051 29.6506 131.778 30.5815 132.992 30.5815C134.2 30.5815 134.947 29.6372 134.947 28.1103ZM123.062 29.6238C123.062 30.2802 123.629 30.6619 124.41 30.6619C125.49 30.6619 126.291 29.9721 126.291 29.068L126.291 28.4586L124.516 28.5724C123.516 28.6394 123.062 28.9809 123.062 29.6238Z" fill="rgb(255,255,255)" fill-rule="evenodd" />
		</g>
	</g>
</svg>
