<svg viewBox="0 0 236.433 88.1218" xmlns="http://www.w3.org/2000/svg" xmlns:xlink="http://www.w3.org/1999/xlink" width="236.432800" height="88.121826" fill="none" customFrame="#000000">
	<defs>
		<g id="pixso_custom_effect_0">
			<effect x="0.000000" y="-0.264366" visibility="visible" fill="rgb(0,0,0)" fill-opacity="0.119999997" effectType="innerShadow" showShadowBehind="1" stdDeviation="0" radius="0" />
			<effect x="0.000000" y="0.264366" visibility="visible" fill="rgb(255,255,255)" fill-opacity="0.25" effectType="innerShadow" showShadowBehind="1" stdDeviation="0" radius="0" />
		</g>
		<filter id="filter_0" width="40.535645" height="45.330811" x="22.784851" y="21.614502" filterUnits="userSpaceOnUse" customEffect="url(#pixso_custom_effect_0)" color-interpolation-filters="sRGB">
			<feFlood flood-opacity="0" result="BackgroundImageFix" />
			<feBlend result="shape" in="SourceGraphic" in2="BackgroundImageFix" mode="normal" />
			<feColorMatrix result="hardAlpha" in="SourceAlpha" type="matrix" values="0 0 0 0 0 0 0 0 0 0 0 0 0 0 0 0 0 0 127 0 " />
			<feOffset dx="0.000000" dy="-0.264366" in="hardAlpha" />
			<feGaussianBlur stdDeviation="0" />
			<feComposite k2="-1" k3="1" in2="hardAlpha" operator="arithmetic" />
			<feColorMatrix type="matrix" values="0 0 0 0 0 0 0 0 0 0 0 0 0 0 0 0 0 0 0.12 0 " />
			<feBlend result="effect_innerShadow_1" in2="shape" mode="normal" />
			<feColorMatrix result="hardAlpha" in="SourceAlpha" type="matrix" values="0 0 0 0 0 0 0 0 0 0 0 0 0 0 0 0 0 0 127 0 " />
			<feOffset dx="0.000000" dy="0.264366" in="hardAlpha" />
			<feGaussianBlur stdDeviation="0" />
			<feComposite k2="-1" k3="1" in2="hardAlpha" operator="arithmetic" />
			<feColorMatrix type="matrix" values="0 0 0 0 1 0 0 0 0 1 0 0 0 0 1 0 0 0 0.25 0 " />
			<feBlend result="effect_innerShadow_2" in2="effect_innerShadow_1" mode="normal" />
		</filter>
		<linearGradient id="paint_linear_0" x1="43.549572" x2="13.9725552" y1="24.3780212" y2="53.8400459" gradientUnits="userSpaceOnUse">
			<stop stop-color="rgb(0,160,255)" offset="0" stop-opacity="1" />
			<stop stop-color="rgb(0,161,255)" offset="0.00659999996" stop-opacity="1" />
			<stop stop-color="rgb(0,190,255)" offset="0.260100007" stop-opacity="1" />
			<stop stop-color="rgb(0,210,255)" offset="0.512199998" stop-opacity="1" />
			<stop stop-color="rgb(0,223,255)" offset="0.760399997" stop-opacity="1" />
			<stop stop-color="rgb(0,227,255)" offset="1" stop-opacity="1" />
		</linearGradient>
		<linearGradient id="paint_linear_1" x1="64.6736298" x2="22.1956425" y1="44.2793503" y2="44.2793503" gradientUnits="userSpaceOnUse">
			<stop stop-color="rgb(255,224,0)" offset="0" stop-opacity="1" />
			<stop stop-color="rgb(255,189,0)" offset="0.408699989" stop-opacity="1" />
			<stop stop-color="rgb(255,165,0)" offset="0.775399983" stop-opacity="1" />
			<stop stop-color="rgb(255,156,0)" offset="1" stop-opacity="1" />
		</linearGradient>
		<g id="pixso_custom_effect_1">
			<effect x="0.000000" y="-0.264366" visibility="visible" fill="rgb(0,0,0)" fill-opacity="0.0799999982" effectType="innerShadow" showShadowBehind="1" stdDeviation="0" radius="0" />
		</g>
		<filter id="filter_1" width="29.293701" height="22.666260" x="23.597687" y="44.278809" filterUnits="userSpaceOnUse" customEffect="url(#pixso_custom_effect_1)" color-interpolation-filters="sRGB">
			<feFlood flood-opacity="0" result="BackgroundImageFix" />
			<feBlend result="shape" in="SourceGraphic" in2="BackgroundImageFix" mode="normal" />
			<feOffset dx="0.000000" dy="-0.264366" in="SourceAlpha" />
			<feGaussianBlur stdDeviation="0" />
			<feComposite k2="-1" k3="1" in2="SourceAlpha" operator="arithmetic" />
			<feColorMatrix type="matrix" values="0 0 0 0 0 0 0 0 0 0 0 0 0 0 0 0 0 0 0.08 0 " />
			<feBlend result="effect_innerShadow_1" in2="shape" mode="normal" />
		</filter>
		<linearGradient id="paint_linear_2" x1="48.8642616" x2="8.75411224" y1="48.3216629" y2="88.2758713" gradientUnits="userSpaceOnUse">
			<stop stop-color="rgb(255,58,68)" offset="0" stop-opacity="1" />
			<stop stop-color="rgb(195,17,98)" offset="1" stop-opacity="1" />
		</linearGradient>
		<linearGradient id="paint_linear_3" x1="18.0876045" x2="35.9978981" y1="9.34041595" y2="27.181078" gradientUnits="userSpaceOnUse">
			<stop stop-color="rgb(50,160,113)" offset="0" stop-opacity="1" />
			<stop stop-color="rgb(45,167,113)" offset="0.0684999973" stop-opacity="1" />
			<stop stop-color="rgb(21,207,116)" offset="0.476200014" stop-opacity="1" />
			<stop stop-color="rgb(6,231,117)" offset="0.800899982" stop-opacity="1" />
			<stop stop-color="rgb(0,240,118)" offset="1" stop-opacity="1" />
		</linearGradient>
	</defs>
	<g id="Google Play Black">
		<rect id="Body" width="236.432800" height="88.121933" x="0.000000" y="0.000000" rx="13.301423" fill="rgb(9,9,9)" />
		<g id="Logo" filter="url(#filter_0)">
			<path id="Vector" d="M23.5977 22.3142C23.0868 22.857 22.7849 23.6995 22.7849 24.7904L22.7849 63.7685C22.7849 64.8612 23.0868 65.7019 23.5977 66.2448L23.7276 66.3716L45.4776 44.5368L45.4776 44.2795L45.4776 44.0222L23.7276 22.1855L23.5977 22.3142Z" fill="url(#paint_linear_0)" fill-rule="nonzero" />
			<path id="Vector" d="M52.726 51.8173L45.4772 44.5367L45.4772 44.2794L45.4772 44.022L52.7277 36.7432L52.891 36.8366L61.4811 41.7362C63.9337 43.1355 63.9337 45.4249 61.4811 46.8261L52.891 51.7257L52.726 51.8173Z" fill="url(#paint_linear_1)" fill-rule="nonzero" />
			<g filter="url(#filter_1)">
				<path id="Vector" d="M52.8914 51.7233L45.4758 44.2788L23.5977 66.2441C24.4053 67.1041 25.7413 67.2099 27.2458 66.3534L52.8914 51.7233Z" fill="url(#paint_linear_2)" fill-rule="nonzero" />
			</g>
			<path id="Vector" d="M52.8914 36.8348L27.2458 22.2066C25.7413 21.3483 24.4053 21.4558 23.5977 22.3158L45.4776 44.2811L52.8914 36.8348Z" fill="url(#paint_linear_3)" fill-rule="nonzero" />
		</g>
		<g id="Texto">
			<path id="Google Play" d="M118.485 46.4119C114.585 46.4119 111.406 49.3768 111.406 53.4602C111.406 57.5189 114.585 60.5085 118.485 60.5085C122.386 60.5085 125.565 57.5189 125.565 53.4602C125.563 49.3768 122.384 46.4119 118.485 46.4119ZM118.485 57.7343C116.347 57.7343 114.505 55.9726 114.505 53.4619C114.505 50.9246 116.349 49.1895 118.485 49.1895C120.622 49.1895 122.464 50.9246 122.464 53.4619C122.464 55.971 120.622 57.7343 118.485 57.7343ZM103.041 46.4119C99.1412 46.4119 95.9627 49.3768 95.9627 53.4602C95.9627 57.5189 99.1412 60.5085 103.041 60.5085C106.943 60.5085 110.121 57.5189 110.121 53.4602C110.121 49.3768 106.943 46.4119 103.041 46.4119ZM103.041 57.7343C100.904 57.7343 99.0617 55.9726 99.0617 53.4619C99.0617 50.9246 100.905 49.1895 103.041 49.1895C105.178 49.1895 107.021 50.9246 107.021 53.4619C107.022 55.971 105.178 57.7343 103.041 57.7343ZM84.6727 48.5763L84.6727 51.566L91.8324 51.566C91.6185 53.2481 91.058 54.4761 90.2025 55.3296C89.1612 56.3704 87.5313 57.5189 84.6727 57.5189C80.2655 57.5189 76.82 53.9674 76.82 49.5624C76.82 45.1574 80.2655 41.6059 84.6727 41.6059C87.0504 41.6059 88.7865 42.5406 90.0682 43.7421L92.1789 41.6324C90.3882 39.9238 88.0121 38.6162 84.6727 38.6162C78.6356 38.6162 73.5602 43.5283 73.5602 49.5624C73.5602 55.5964 78.6356 60.5085 84.6727 60.5085C87.9309 60.5085 90.3898 59.4396 92.3116 57.4376C94.288 55.4622 94.9032 52.6846 94.9032 50.4424C94.9032 49.7496 94.8501 49.1083 94.7423 48.5747L84.6727 48.5763ZM159.798 50.8981C159.211 49.3237 157.42 46.4119 153.76 46.4119C150.128 46.4119 147.108 49.269 147.108 53.4602C147.108 57.4111 150.101 60.5085 154.107 60.5085C157.339 60.5085 159.209 58.5331 159.985 57.3846L157.581 55.7821C156.78 56.957 155.684 57.731 154.107 57.731C152.532 57.731 151.409 57.0101 150.688 55.5948L160.118 51.6969L159.798 50.8981ZM150.181 53.2481C150.101 50.5236 152.291 49.1365 153.868 49.1365C155.097 49.1365 156.138 49.7513 156.486 50.6313L150.181 53.2481ZM142.515 60.0826L145.613 60.0826L145.613 39.3653L142.515 39.3653L142.515 60.0826ZM137.438 47.988L137.332 47.988C136.637 47.1594 135.301 46.4119 133.62 46.4119C130.093 46.4119 126.861 49.5093 126.861 53.4884C126.861 57.4393 130.093 60.5102 133.62 60.5102C135.303 60.5102 136.637 59.7628 137.332 58.9093L137.438 58.9093L137.438 59.9235C137.438 62.6199 135.996 64.0617 133.673 64.0617C131.776 64.0617 130.6 62.7011 130.119 61.5526L127.422 62.6746C128.196 64.5423 130.252 66.8392 133.673 66.8392C137.306 66.8392 140.378 64.703 140.378 59.496L140.378 46.8412L137.44 46.8412L137.438 47.988ZM133.887 57.7343C131.749 57.7343 129.96 55.9445 129.96 53.4884C129.96 51.0042 131.749 49.1895 133.887 49.1895C135.996 49.1895 137.652 51.0042 137.652 53.4884C137.652 55.9445 135.996 57.7343 133.887 57.7343ZM174.313 39.3653L166.899 39.3653L166.899 60.0826L169.992 60.0826L169.992 52.2339L174.311 52.2339C177.74 52.2339 181.112 49.753 181.112 45.8004C181.112 41.8479 177.742 39.3653 174.313 39.3653ZM174.392 49.3502L169.992 49.3502L169.992 42.2489L174.392 42.2489C176.705 42.2489 178.018 44.163 178.018 45.8004C178.018 47.4046 176.705 49.3502 174.392 49.3502ZM193.513 46.3755C191.273 46.3755 188.954 47.3615 187.993 49.5475L190.739 50.6926C191.326 49.5475 192.421 49.1729 193.566 49.1729C195.166 49.1729 196.793 50.1325 196.82 51.8378L196.82 52.0516C196.259 51.7317 195.059 51.2528 193.593 51.2528C190.633 51.2528 187.619 52.8785 187.619 55.9163C187.619 58.6889 190.046 60.4737 192.765 60.4737C194.845 60.4737 195.992 59.5407 196.712 58.4469L196.818 58.4469L196.818 60.0462L199.806 60.0462L199.806 52.103C199.807 48.4272 197.058 46.3755 193.513 46.3755ZM193.139 57.7293C192.127 57.7293 190.713 57.2222 190.713 55.9693C190.713 54.3701 192.474 53.7569 193.994 53.7569C195.352 53.7569 195.994 54.0502 196.82 54.4496C196.579 56.3704 194.926 57.7293 193.139 57.7293ZM210.686 46.8279L207.14 55.8102L207.033 55.8102L203.352 46.8279L200.02 46.8279L205.539 59.3816L202.392 66.3653L205.619 66.3653L214.127 46.8279L210.686 46.8279ZM182.82 60.0826L185.913 60.0826L185.913 39.3653L182.82 39.3653L182.82 60.0826Z" fill="rgb(255,255,255)" fill-rule="nonzero" />
			<path id="Get it on" d="M127.675 30.3362C126.697 31.3223 125.483 31.8154 124.03 31.8154C122.577 31.8154 121.363 31.3223 120.387 30.3362C119.41 29.3501 118.923 28.1427 118.923 26.7156C118.923 25.2885 119.41 24.0811 120.387 23.095C121.363 22.1089 122.577 21.6143 124.03 21.6143C125.475 21.6143 126.687 22.1106 127.668 23.1015C128.649 24.0925 129.139 25.2967 129.139 26.7156C129.139 28.1427 128.65 29.3501 127.675 30.3362ZM84.2866 27.111C84.2866 28.4746 83.8757 29.5599 83.0524 30.3703C82.1181 31.3336 80.8988 31.8153 79.4013 31.8153C77.9666 31.8153 76.7457 31.3271 75.7435 30.3508C74.7396 29.3728 74.2376 28.1622 74.2376 26.7172C74.2376 25.2706 74.7396 24.0599 75.7435 23.0836C76.7457 22.1056 77.9666 21.6174 79.4013 21.6174C80.1136 21.6174 80.7945 21.7541 81.4406 22.0259C82.0883 22.2992 82.6068 22.6621 82.9944 23.1161L82.1214 23.9753C81.4637 23.2024 80.5576 22.8167 79.3996 22.8167C78.3526 22.8167 77.4481 23.178 76.6844 23.9004C75.9207 24.6229 75.5397 25.5618 75.5397 26.7155C75.5397 27.8693 75.9207 28.8082 76.6844 29.5307C77.4481 30.2531 78.3526 30.6144 79.3996 30.6144C80.5095 30.6144 81.4356 30.2515 82.1761 29.5241C82.6565 29.0506 82.9348 28.3916 83.0094 27.5471L79.3996 27.5471L79.3996 26.3738L84.2154 26.3738C84.2651 26.6293 84.2866 26.875 84.2866 27.111ZM87.3979 23.0332L91.9237 23.0332L91.9237 21.834L86.1206 21.834L86.1206 31.5973L91.9237 31.5973L91.9237 30.3964L87.3979 30.3964L87.3979 27.3014L91.4798 27.3014L91.4798 26.1282L87.3979 26.1282L87.3979 23.0332ZM97.3092 31.5973L96.0319 31.5973L96.0319 23.0332L93.2554 23.0332L93.2554 21.834L100.086 21.834L100.086 23.0332L97.3092 23.0332L97.3092 31.5973ZM105.027 31.5973L105.027 21.834L106.304 21.834L106.304 31.5973L105.027 31.5973ZM110.691 31.5973L111.969 31.5973L111.969 23.0332L114.745 23.0332L114.745 21.834L107.915 21.834L107.915 23.0332L110.691 23.0332L110.691 31.5973ZM130.932 21.834L130.932 31.5973L132.206 31.5973L132.206 25.5147L132.151 23.6337L132.206 23.6337L137.26 31.5973L138.593 31.5973L138.593 21.834L137.316 21.834L137.316 27.5472L137.371 29.4282L137.316 29.4282L132.485 21.834L130.932 21.834ZM121.33 29.5177C122.065 30.25 122.965 30.6145 124.03 30.6145C125.095 30.6145 125.996 30.2483 126.73 29.5177C127.466 28.7855 127.835 27.8514 127.835 26.7156C127.835 25.5798 127.466 24.6458 126.73 23.9135C125.996 23.1813 125.095 22.8168 124.03 22.8168C122.965 22.8168 122.065 23.1829 121.33 23.9135C120.596 24.6458 120.227 25.5798 120.227 26.7156C120.227 27.8514 120.596 28.7855 121.33 29.5177Z" fill="rgb(255,255,255)" fill-rule="evenodd" />
			<path id="Get it on" d="M79.5586 26.9952C78.9946 27.5872 78.2586 27.8832 77.3546 27.8832C76.4886 27.8832 75.7516 27.5832 75.1466 26.9832C74.5406 26.3822 74.2376 25.6382 74.2376 24.7502C74.2376 23.8612 74.5406 23.1172 75.1466 22.5172C75.7516 21.9162 76.4886 21.6162 77.3546 21.6162C77.7846 21.6162 78.1956 21.7002 78.5856 21.8672C78.9766 22.0352 79.2896 22.2582 79.5236 22.5372L78.9966 23.0652C78.5996 22.5902 78.0526 22.3532 77.3536 22.3532C76.7216 22.3532 76.1756 22.5752 75.7146 23.0192C75.2536 23.4632 75.0236 24.0402 75.0236 24.7492C75.0236 25.4582 75.2536 26.0352 75.7146 26.4792C76.1756 26.9232 76.7216 27.1452 77.3536 27.1452C78.0236 27.1452 78.5826 26.9222 79.0296 26.4752C79.3196 26.1842 79.4876 25.7792 79.5326 25.2602L77.3536 25.2602L77.3536 24.5392L80.2606 24.5392C80.2906 24.6962 80.3036 24.8472 80.3036 24.9922C80.3036 25.8302 80.0556 26.4972 79.5586 26.9952ZM82.1817 22.4863L82.1817 24.3883L84.6457 24.3883L84.6457 25.1093L82.1817 25.1093L82.1817 27.0113L84.9137 27.0113L84.9137 27.7493L81.4107 27.7493L81.4107 21.7493L84.9137 21.7493L84.9137 22.4863L82.1817 22.4863ZM87.3936 27.7493L87.3936 22.4863L85.7176 22.4863L85.7176 21.7493L89.8406 21.7493L89.8406 22.4863L88.1646 22.4863L88.1646 27.7493L87.3936 27.7493ZM92.8235 21.7493L93.5945 21.7493L93.5945 27.7493L92.8235 27.7493L92.8235 21.7493ZM96.2427 27.7493L96.2427 22.4863L94.5667 22.4863L94.5667 21.7493L98.6897 21.7493L98.6897 22.4863L97.0137 22.4863L97.0137 27.7493L96.2427 27.7493ZM104.294 27.8833C103.417 27.8833 102.684 27.5803 102.095 26.9743C101.505 26.3683 101.211 25.6263 101.211 24.7493C101.211 23.8723 101.505 23.1303 102.095 22.5243C102.684 21.9183 103.417 21.6143 104.294 21.6143C105.166 21.6143 105.898 21.9193 106.49 22.5283C107.082 23.1373 107.378 23.8773 107.378 24.7493C107.378 25.6263 107.083 26.3683 106.494 26.9743C105.904 27.5803 105.171 27.8833 104.294 27.8833ZM104.294 27.1453C104.937 27.1453 105.481 26.9203 105.924 26.4713C106.368 26.0213 106.591 25.4473 106.591 24.7493C106.591 24.0513 106.368 23.4773 105.924 23.0273C105.481 22.5773 104.937 22.3533 104.294 22.3533C103.651 22.3533 103.108 22.5783 102.664 23.0273C102.221 23.4773 101.998 24.0513 101.998 24.7493C101.998 25.4473 102.221 26.0213 102.664 26.4713C103.108 26.9213 103.651 27.1453 104.294 27.1453ZM108.461 21.7493L109.399 21.7493L112.315 26.4163L112.348 26.4163L112.315 25.2603L112.315 21.7493L113.086 21.7493L113.086 27.7493L112.281 27.7493L109.23 22.8553L109.197 22.8553L109.23 24.0113L109.23 27.7493L108.461 27.7493L108.461 21.7493Z" fill-rule="evenodd" stroke="rgb(255,255,255)" stroke-width="0.068007" />
		</g>
	</g>
</svg>
