<svg viewBox="0 0 89.9624 90" xmlns="http://www.w3.org/2000/svg" xmlns:xlink="http://www.w3.org/1999/xlink" width="89.962372" height="90.000000" fill="none">
	<rect id="Frame" width="89.962364" height="90.000000" x="0.000000" y="0.000000" fill="rgb(255,255,255)" fill-opacity="0" />
	<path id="Vector" d="M89.9624 36.271C89.6707 38.0304 89.4614 39.7993 89.0756 41.5446C85.9919 55.3897 74.0944 66.0264 59.9459 67.6329C42.9395 69.5664 27.3914 58.9838 22.9693 42.4643C18.8176 26.928 26.6811 10.1145 41.2953 3.30485C44.9821 1.55409 48.9541 0.481623 53.021 0.13878C53.1908 0.109608 53.3571 0.0631047 53.5173 1.46242e-15L58.2712 0C59.4237 0.171711 60.5787 0.322252 61.7289 0.515133C75.1106 2.74737 86.1401 13.1488 89.0756 26.3447C89.4684 28.1065 89.6731 29.9083 89.9624 31.6912L89.9624 36.271ZM53.348 16.91L53.348 36.5509L73.0054 36.5509L73.0054 31.2843L58.5699 31.2843L58.5699 16.91L53.348 16.91Z" fill="rgb(57,108,3)" fill-rule="nonzero" />
	<path id="Vector" d="M26.1424 67.4636L10.0392 83.6796L6.40033 80.029L22.4635 63.7988L26.1424 67.4636Z" fill="rgb(57,108,3)" fill-rule="nonzero" />
	<path id="Vector" d="M36.5062 69.8793L40.0792 73.3888L26.1753 87.422L22.5953 83.8631L36.5062 69.8793Z" fill="rgb(57,108,3)" fill-rule="nonzero" />
	<path id="Vector" d="M6.07811 67.4118L2.5498 63.9282C7.18208 59.2583 11.8253 54.5814 16.4796 49.8973L20.0079 53.3998L6.07811 67.4118Z" fill="rgb(57,108,3)" fill-rule="nonzero" />
	<path id="Vector" d="M3.64121 50.0031L0 46.3831L12.6713 33.6365C13.8968 34.8549 15.1317 36.0781 16.289 37.2259L3.64121 50.0031Z" fill="rgb(57,108,3)" fill-rule="nonzero" />
	<path id="Vector" d="M43.7109 90.0001L40.0674 86.4106L52.7952 73.624L56.3846 77.2017L43.7109 90.0001Z" fill="rgb(57,108,3)" fill-rule="nonzero" />
</svg>
